<?xml version="1.0" encoding="utf-8"?>
<!-- Generator: Adobe Illustrator 24.1.1, SVG Export Plug-In . SVG Version: 6.00 Build 0)  -->
<svg version="1.1" id="_x3C_Layer_x3E_" xmlns="http://www.w3.org/2000/svg" xmlns:xlink="http://www.w3.org/1999/xlink" x="0px"
	 y="0px" viewBox="0 0 1582 1779.59" style="enable-background:new 0 0 1582 1779.59;" xml:space="preserve">
<style type="text/css">
	.st0{display:none;fill:#F5F5F5;}
	.st1{fill:#99D7FF;}
	.st2{fill:#7796FE;}
	.st3{fill:#004D54;}
	.st4{fill:#A2B7FD;}
	.st5{fill:#698BFD;}
	.st6{fill:#FFFFFF;}
	.st7{fill:#121841;}
	.st8{fill:#F57408;}
	.st9{fill:#E4EDFF;}
	.st10{fill:#D5DFFE;}
	.st11{fill:#2846A6;}
	.st12{fill:#1F1A15;}
	.st13{fill:#450000;}
	.st14{fill:url(#SVGID_1_);}
	.st15{fill:#FABF44;}
	.st16{fill:#F15A24;}
	.st17{fill:#0E1B29;}
	.st18{fill:#FC7575;}
	.st19{fill:#FFDA88;}
	.st20{fill:#464A7F;}
	.st21{fill:#35385F;}
	.st22{fill:#6B6E99;}
	.st23{fill:#FD5E5A;}
	.st24{fill:#241145;}
	.st25{fill:#ED1E79;}
	.st26{fill:#1B3753;}
	.st27{fill:#0A4CFE;}
	.st28{fill:#0033BF;}
</style>
<rect x="-1424" y="-313.69" class="st0" width="3006" height="1670"/>
<g>
	<g>
		<g>
			<path class="st1" d="M132.89,1201.24c2.56,0.77,3.59,3.18,2.3,5.37c-5.69,9.64-10.28,17.55-13.64,23.5
				c-1.24,2.2-4.34,3.41-6.94,2.68c-2.59-0.73-3.68-3.11-2.43-5.32c3.39-6.01,8-13.97,13.73-23.66c0.4-0.68,0.98-1.26,1.67-1.72
				C129.09,1201.09,131.12,1200.71,132.89,1201.24z M102.25,1259.53c2.72,0.45,4.19,2.67,3.27,4.95c-3.26,8.12-6.29,16.29-9,24.29
				c-0.78,2.3-3.65,3.89-6.42,3.55c-2.76-0.34-4.37-2.48-3.59-4.78c2.75-8.13,5.83-16.44,9.15-24.69c0.37-0.92,1.07-1.71,1.96-2.3
				C98.93,1259.68,100.63,1259.26,102.25,1259.53z M82.15,1319.64c2.81,0.16,4.64,2.17,4.08,4.49c-2,8.21-3.71,16.48-5.11,24.59
				c-0.39,2.33-3.03,4.19-5.87,4.16c-2.84-0.02-4.82-1.93-4.43-4.25c1.42-8.26,3.17-16.7,5.2-25.08c0.27-1.13,1.06-2.12,2.13-2.83
				C79.28,1319.98,80.7,1319.56,82.15,1319.64z M72.01,1380.35c2.87-0.19,5.08,1.55,4.93,3.87c-0.5,8.2-0.68,16.42-0.52,24.42
				c0.04,2.3-2.25,4.44-5.12,4.77c-2.87,0.34-5.24-1.26-5.28-3.56c-0.17-8.19,0.02-16.59,0.54-24.98c0.08-1.35,0.95-2.6,2.23-3.45
				C69.69,1380.82,70.82,1380.43,72.01,1380.35z M73.53,1440.38c2.85-0.56,5.44,0.81,5.77,3.06c1.17,7.93,2.72,15.86,4.61,23.59
				c0.54,2.21-1.31,4.59-4.13,5.32c-2.82,0.73-5.55-0.48-6.08-2.69c-1.94-7.92-3.53-16.05-4.73-24.18c-0.23-1.56,0.67-3.13,2.2-4.14
				C71.85,1440.89,72.65,1440.56,73.53,1440.38z M87.96,1497.97c2.75-0.96,5.65-0.02,6.49,2.1c2.94,7.42,6.29,14.82,9.94,21.98
				c1.04,2.04-0.28,4.59-2.96,5.71c-2.67,1.11-5.69,0.36-6.73-1.68c-3.75-7.35-7.18-14.93-10.19-22.54c-0.68-1.71,0.2-3.66,2-4.85
				C86.94,1498.4,87.42,1498.16,87.96,1497.97z M115.4,1551.14c2.55-1.33,5.68-0.85,7.01,1.06c1.06,1.54,2.14,3.07,3.25,4.6
				c3.68,5.11,7.59,10.18,11.64,15.08c1.49,1.81,0.69,4.47-1.73,5.92c-2.45,1.46-5.65,1.17-7.15-0.65
				c-4.15-5.02-8.15-10.21-11.92-15.44c-1.13-1.57-2.24-3.14-3.33-4.72c-1.21-1.75-0.47-4.11,1.64-5.51
				C115,1551.37,115.2,1551.25,115.4,1551.14z M161.98,1598.42c6.05,5.79,12.48,11.49,19.12,16.93c1.89,1.54,1.66,4.2-0.51,5.94
				c-2.17,1.74-5.45,1.9-7.33,0.35c-6.8-5.57-13.38-11.39-19.58-17.33c-1.73-1.66-1.28-4.32,1.02-5.95
				c0.05-0.04,0.11-0.08,0.17-0.11C157.14,1596.73,160.29,1596.8,161.98,1598.42z M211.45,1637.6c7.27,4.78,14.92,9.43,22.72,13.82
				c2.21,1.24,2.51,3.84,0.68,5.81c-1.83,1.96-5.11,2.55-7.32,1.3c-7.98-4.48-15.79-9.24-23.23-14.13c-2.08-1.37-2.17-4-0.2-5.88
				c0.25-0.24,0.52-0.45,0.81-0.64C206.89,1636.57,209.63,1636.41,211.45,1637.6z M269.21,1668.99c8.31,3.69,16.93,7.21,25.62,10.44
				c2.47,0.92,3.29,3.4,1.82,5.53c-1.47,2.14-4.66,3.12-7.13,2.2c-8.88-3.31-17.69-6.9-26.18-10.68c-2.37-1.05-2.98-3.59-1.36-5.66
				c0.37-0.47,0.82-0.87,1.33-1.21C265.02,1668.48,267.38,1668.17,269.21,1668.99z M333.55,1691.99c9.09,2.53,18.46,4.85,27.84,6.89
				c2.66,0.58,3.96,2.88,2.89,5.13c-1.07,2.25-4.1,3.6-6.77,3.03c-9.58-2.09-19.15-4.46-28.43-7.05c-2.6-0.72-3.7-3.1-2.46-5.31
				c0.4-0.72,1-1.33,1.72-1.81C329.82,1691.89,331.8,1691.5,333.55,1691.99z M402.83,1706.18c9.67,1.32,19.55,2.39,29.38,3.19
				c2.8,0.23,4.55,2.29,3.9,4.6c-0.65,2.31-3.44,4.01-6.24,3.78c-10.03-0.82-20.13-1.92-30.01-3.26c-2.75-0.37-4.31-2.54-3.49-4.83
				c0.35-0.97,1.08-1.82,2.01-2.44C399.62,1706.39,401.25,1705.97,402.83,1706.18z M475.34,1711.22c9.99,0,20.13-0.35,30.15-1.03
				c2.87-0.2,5.09,1.52,4.96,3.84c-0.13,2.32-2.56,4.35-5.43,4.55c-10.31,0.7-20.75,1.06-31.02,1.06c-2.85,0-4.86-1.88-4.49-4.21
				c0.2-1.24,1.03-2.35,2.19-3.12C472.73,1711.63,474.01,1711.22,475.34,1711.22z M1106.48,1324.67c2.52,0.84,3.44,3.28,2.06,5.45
				c-4.89,7.67-10.13,15.45-15.59,23.12c-1.51,2.12-4.71,3.06-7.16,2.1c-2.44-0.96-3.2-3.45-1.69-5.57
				c5.36-7.53,10.51-15.17,15.32-22.71c0.4-0.63,0.94-1.16,1.59-1.58C1102.58,1324.43,1104.69,1324.07,1106.48,1324.67z
				 M549.19,1705.08c9.94-1.64,20.05-3.64,30.08-5.95c2.83-0.65,5.5,0.63,5.95,2.86c0.44,2.23-1.49,4.56-4.33,5.22
				c-10.3,2.37-20.7,4.43-30.91,6.11c-2.86,0.47-5.36-0.99-5.58-3.27c-0.14-1.52,0.76-3.01,2.22-3.98
				C547.35,1705.59,548.23,1705.24,549.19,1705.08z M1066.96,1379.99c2.33,1.1,2.86,3.65,1.19,5.7
				c-5.93,7.26-12.19,14.6-18.59,21.79c-1.78,2-5.05,2.65-7.3,1.46c-2.26-1.19-2.65-3.77-0.87-5.77
				c6.3-7.09,12.46-14.31,18.31-21.47c0.35-0.43,0.78-0.81,1.26-1.12C1062.71,1379.41,1065.11,1379.12,1066.96,1379.99z
				 M622.08,1687.32c9.57-3.07,19.34-6.49,29.03-10.16c2.71-1.03,5.67-0.18,6.61,1.91c0.93,2.08-0.52,4.61-3.23,5.64
				c-9.91,3.76-19.9,7.26-29.69,10.4c-2.77,0.89-5.62-0.13-6.38-2.28c-0.59-1.69,0.3-3.57,2.05-4.73
				C620.94,1687.77,621.49,1687.51,622.08,1687.32z M1020.48,1432.14c2.15,1.3,2.35,3.92,0.44,5.85
				c-6.71,6.77-13.74,13.65-20.92,20.44c-1.98,1.88-5.27,2.28-7.35,0.9c-2.08-1.37-2.16-4.01-0.17-5.88
				c7.08-6.71,14.04-13.5,20.66-20.19c0.29-0.29,0.59-0.54,0.93-0.76C1015.99,1431.22,1018.65,1431.02,1020.48,1432.14z
				 M691.99,1660.02c9.06-4.15,18.33-8.62,27.54-13.3c2.57-1.3,5.69-0.8,6.99,1.13c1.29,1.93,0.23,4.55-2.31,5.85
				c-9.37,4.76-18.8,9.31-28.02,13.53c-2.63,1.21-5.7,0.57-6.86-1.42c-1.02-1.75-0.22-3.97,1.78-5.29
				C691.39,1660.33,691.68,1660.17,691.99,1660.02z M968.61,1481.09c1.98,1.47,1.9,4.12-0.19,5.92
				c-7.37,6.39-15.01,12.84-22.71,19.16c-2.15,1.73-5.43,1.95-7.34,0.43c-1.91-1.52-1.73-4.18,0.41-5.94
				c7.62-6.26,15.18-12.64,22.48-18.96c0.2-0.17,0.4-0.33,0.62-0.47C963.94,1479.87,966.82,1479.76,968.61,1481.09z M912.56,1527.03
				c1.83,1.59,1.51,4.26-0.71,5.95c-7.82,5.98-15.93,12.03-24.1,17.99c-2.36,1.65-5.53,1.67-7.3,0.03c-1.77-1.63-1.37-4.3,0.9-5.95
				c8.1-5.91,16.13-11.91,23.89-17.84c0.11-0.08,0.22-0.17,0.34-0.24C907.78,1525.52,910.83,1525.52,912.56,1527.03z M758.24,1625.8
				c8.51-4.87,17.29-10.07,26.09-15.45c2.43-1.48,5.64-1.24,7.18,0.55c1.53,1.79,0.79,4.49-1.61,5.93
				c-8.9,5.45-17.79,10.71-26.41,15.64c-2.48,1.42-5.66,1.08-7.11-0.77c-1.38-1.75-0.68-4.22,1.52-5.68
				C757.99,1625.94,758.11,1625.87,758.24,1625.8z M853.3,1570.22c1.69,1.69,1.18,4.35-1.14,5.95c-8.1,5.59-16.1,10.99-23.76,16.07
				l-1.36,0.9c-2.36,1.56-5.6,1.43-7.24-0.29c-1.64-1.72-1.06-4.38,1.3-5.95l1.36-0.9c7.6-5.04,15.53-10.4,23.57-15.95
				c0.03-0.02,0.06-0.04,0.09-0.06C848.44,1568.47,851.63,1568.56,853.3,1570.22z"/>
		</g>
	</g>
	<g>
		<path class="st2" d="M1224.23,706.8H413.97c-6.42,0-11.62-5.2-11.62-11.62v-545.7c0-6.42,5.2-11.62,11.62-11.62h810.26
			c6.42,0,11.62,5.2,11.62,11.62v545.7C1235.84,701.6,1230.64,706.8,1224.23,706.8z"/>
		<path class="st3" d="M1224.23,192.37H413.97c-6.42,0-11.62-5.2-11.62-11.62v-31.27c0-6.42,5.2-11.62,11.62-11.62h810.26
			c6.42,0,11.62,5.2,11.62,11.62v31.27C1235.84,187.17,1230.64,192.37,1224.23,192.37z"/>
		<rect x="479.06" y="247.23" class="st4" width="206.49" height="321.88"/>
		<rect x="743.35" y="247.23" class="st5" width="438.95" height="18.09"/>
		<rect x="743.35" y="285.51" class="st5" width="438.95" height="20.93"/>
		<rect x="433.53" y="153.13" class="st6" width="554.12" height="29.82"/>
		<path class="st6" d="M1147,178.37c0,2.54-2.05,4.59-4.59,4.59c-2.54,0-4.59-2.05-4.59-4.59c0-2.53,2.05-4.59,4.59-4.59
			C1144.95,173.78,1147,175.83,1147,178.37z"/>
		<path class="st6" d="M1158.12,178.37c0,2.54-2.05,4.59-4.59,4.59c-2.54,0-4.59-2.05-4.59-4.59c0-2.53,2.05-4.59,4.59-4.59
			C1156.07,173.78,1158.12,175.83,1158.12,178.37z"/>
		<path class="st6" d="M1169.24,178.37c0,2.54-2.05,4.59-4.59,4.59c-2.54,0-4.59-2.05-4.59-4.59c0-2.53,2.06-4.59,4.59-4.59
			C1167.18,173.78,1169.24,175.83,1169.24,178.37z"/>
		<path class="st7" d="M980.35,177.6l-4.41-7.61c1.78-1.44,2.94-3.71,2.94-6.26c0-4.35-3.34-7.89-7.47-7.89
			c-4.13,0-7.48,3.53-7.48,7.89c0,4.35,3.35,7.88,7.48,7.88c1.03,0,2-0.22,2.89-0.61l3.12,8.15c0.03,0.08,0.08,0.18,0.12,0.26
			c0.47,0.82,1.49,1.08,2.26,0.58C980.58,179.49,980.82,178.41,980.35,177.6z M965.72,163.73c0-3.3,2.55-5.99,5.68-5.99
			c3.13,0,5.68,2.69,5.68,5.99c0,3.3-2.55,5.99-5.68,5.99C968.27,169.72,965.72,167.03,965.72,163.73z"/>
		<rect x="1010.41" y="153.13" class="st8" width="46.83" height="28.25"/>
		<rect x="779" y="336.79" class="st9" width="385.65" height="345.34"/>
		<rect x="819.1" y="391.73" class="st6" width="152.73" height="145.99"/>
		<rect x="1005.39" y="560.81" class="st6" width="152.73" height="121.32"/>
		<rect x="882.63" y="354.06" class="st8" width="186.64" height="15.7"/>
		<rect x="998.64" y="391.73" class="st5" width="159.48" height="7.85"/>
		<rect x="998.64" y="405.34" class="st5" width="159.48" height="7.85"/>
		<rect x="998.64" y="418.94" class="st5" width="159.48" height="7.85"/>
		<rect x="998.64" y="432.54" class="st5" width="159.48" height="7.85"/>
		<rect x="998.64" y="446.15" class="st5" width="159.48" height="7.85"/>
		<rect x="998.64" y="459.75" class="st5" width="159.48" height="7.85"/>
		<rect x="998.64" y="473.36" class="st5" width="159.48" height="7.85"/>
		<rect x="998.64" y="486.96" class="st5" width="159.48" height="7.85"/>
		<rect x="998.64" y="500.57" class="st5" width="159.48" height="7.85"/>
		<rect x="998.64" y="514.17" class="st5" width="159.48" height="7.85"/>
		<rect x="998.64" y="527.77" class="st5" width="159.48" height="7.85"/>
	</g>
	<g>
		<path class="st10" d="M1486.88,1085.53H676.63c-6.41,0-11.62-5.2-11.62-11.61v-545.7c0-6.41,5.2-11.61,11.62-11.61h810.26
			c6.42,0,11.62,5.2,11.62,11.61v545.7C1498.5,1080.33,1493.3,1085.53,1486.88,1085.53z"/>
		<path class="st3" d="M1486.88,571.11H676.63c-6.41,0-11.62-5.2-11.62-11.61v-31.28c0-6.41,5.2-11.61,11.62-11.61h810.26
			c6.42,0,11.62,5.2,11.62,11.61v31.28C1498.5,565.9,1493.3,571.11,1486.88,571.11z"/>
		<rect x="741.72" y="625.96" class="st5" width="206.49" height="321.88"/>
		<rect x="1006" y="625.96" class="st5" width="438.95" height="18.1"/>
		<rect x="1006" y="664.24" class="st5" width="438.95" height="20.93"/>
		<rect x="696.2" y="531.86" class="st6" width="554.11" height="29.82"/>
		<path class="st6" d="M1409.66,557.1c0,2.54-2.05,4.59-4.59,4.59s-4.59-2.05-4.59-4.59c0-2.53,2.05-4.59,4.59-4.59
			S1409.66,554.57,1409.66,557.1z"/>
		<path class="st6" d="M1420.78,557.1c0,2.54-2.05,4.59-4.59,4.59s-4.59-2.05-4.59-4.59c0-2.53,2.05-4.59,4.59-4.59
			S1420.78,554.57,1420.78,557.1z"/>
		<path class="st6" d="M1431.9,557.1c0,2.54-2.05,4.59-4.59,4.59s-4.59-2.05-4.59-4.59c0-2.53,2.05-4.59,4.59-4.59
			S1431.9,554.57,1431.9,557.1z"/>
		<path class="st7" d="M1243,556.33l-4.41-7.61c1.79-1.43,2.95-3.7,2.95-6.25c0-4.35-3.35-7.89-7.48-7.89
			c-4.13,0-7.48,3.53-7.48,7.89c0,4.36,3.35,7.88,7.48,7.88c1.02,0,2-0.22,2.89-0.61l3.11,8.15c0.03,0.08,0.08,0.18,0.12,0.26
			c0.48,0.82,1.49,1.08,2.27,0.57C1243.23,558.22,1243.48,557.15,1243,556.33z M1228.38,542.46c0-3.3,2.55-5.99,5.68-5.99
			s5.68,2.69,5.68,5.99c0,3.3-2.54,5.99-5.68,5.99S1228.38,545.77,1228.38,542.46z"/>
		<rect x="1273.07" y="531.86" class="st8" width="46.83" height="28.25"/>
		<rect x="1041.66" y="715.52" class="st9" width="385.65" height="345.34"/>
		<rect x="1081.76" y="770.47" class="st6" width="152.73" height="145.99"/>
		<rect x="1268.05" y="939.55" class="st6" width="152.73" height="121.32"/>
		<rect x="1145.29" y="732.79" class="st8" width="186.64" height="15.7"/>
		<rect x="1261.3" y="770.47" class="st5" width="159.48" height="7.85"/>
		<rect x="1261.3" y="784.07" class="st5" width="159.48" height="7.85"/>
		<rect x="1261.3" y="797.67" class="st5" width="159.48" height="7.85"/>
		<rect x="1261.3" y="811.28" class="st5" width="159.48" height="7.85"/>
		<rect x="1261.3" y="824.88" class="st5" width="159.48" height="7.85"/>
		<rect x="1261.3" y="838.49" class="st5" width="159.48" height="7.85"/>
		<rect x="1261.3" y="852.09" class="st5" width="159.48" height="7.85"/>
		<rect x="1261.3" y="865.69" class="st5" width="159.48" height="7.85"/>
		<rect x="1261.3" y="879.3" class="st5" width="159.48" height="7.84"/>
		<rect x="1261.3" y="892.9" class="st5" width="159.48" height="7.85"/>
		<rect x="1261.3" y="906.51" class="st5" width="159.48" height="7.85"/>
	</g>
	<g>
		<path class="st11" d="M793.06,1578.02c0,21.79-163.21,39.45-364.55,39.45c-201.33,0-364.55-17.66-364.55-39.45
			c0-21.79,163.21-39.45,364.55-39.45C629.85,1538.58,793.06,1556.24,793.06,1578.02z"/>
		<polygon class="st12" points="486.47,1581.04 500.94,1581.04 558.53,1333.02 537.56,1331.91 		"/>
		<polygon class="st12" points="721.16,1585.52 706.69,1585.52 649.1,1337.48 670.07,1336.39 		"/>
		<polygon class="st12" points="334.07,1558.75 319.61,1558.75 262.02,1310.72 282.99,1309.62 		"/>
		<polygon class="st12" points="141.94,1575.59 156.4,1575.59 213.99,1327.56 193.03,1326.46 		"/>
		<path class="st13" d="M152.66,1140.94v182.43c0,14.4,13.74,26.08,30.68,26.08h471.11c16.94,0,30.68-11.68,30.68-26.08v-182.43
			c0-14.41-13.74-26.09-30.68-26.09H183.34C166.4,1114.85,152.66,1126.53,152.66,1140.94z"/>
		
			<linearGradient id="SVGID_1_" gradientUnits="userSpaceOnUse" x1="-1006.9338" y1="1182.1957" x2="-1574.5396" y2="1284.3353" gradientTransform="matrix(-1 0 0 1 -865.6494 0)">
			<stop  offset="0" style="stop-color:#F57939"/>
			<stop  offset="1" style="stop-color:#FFFB4D"/>
		</linearGradient>
		<path class="st14" d="M183.34,1114.85c16.94,0,30.68,11.68,30.68,26.09v114.02c0,14.4,13.73,26.08,30.68,26.08h186.55
			c16.29,0,29.61-10.79,30.62-24.42l0,0l0,0c0.08-158.54,0.06-103.86,0.06-115.68c0-14.41,13.74-26.09,30.68-26.09h161.85
			c16.94,0,30.68,11.68,30.68,26.09v182.43c0,14.4-13.74,26.08-30.68,26.08H183.34c-16.94,0-30.68-11.68-30.68-26.08v-182.43
			C152.66,1126.53,166.4,1114.85,183.34,1114.85z"/>
		<g>
			<path class="st15" d="M461.92,1142.25L461.92,1142.25L461.92,1142.25z"/>
			<path class="st15" d="M461.92,1142.75L461.92,1142.75L461.92,1142.75z"/>
			<path class="st15" d="M461.86,1256.62c0.04-83.24,0.06-107.7,0.06-113.87v0v0c0-0.03,0-0.05,0-0.08v-0.38c0-0.02,0-0.05,0-0.07
				c0,0.01,0,0.01,0,0.02c0-0.02,0-0.03,0-0.05v-0.03c0-0.15,0-0.29,0-0.41v-0.01v0.01c0-0.05,0-0.1,0-0.14c0-0.15,0-0.27,0-0.38
				v-0.01c0-0.05,0-0.11,0-0.15v-0.14c0-14.41,13.74-26.09,30.68-26.09h161.85c16.94,0,30.68,11.68,30.68,26.09v182.43
				c0,14.4-13.74,26.08-30.68,26.08H432.87l-1.62-68.41C447.53,1281.04,460.86,1270.25,461.86,1256.62z"/>
		</g>
		<path class="st16" d="M561.89,1349.45h92.56c16.94,0,30.68-11.68,30.68-26.08v-182.43c0-14.41-13.74-26.09-30.68-26.09h-92.56
			c-16.95,0-30.68,11.68-30.68,26.09v182.43C531.21,1337.78,544.95,1349.45,561.89,1349.45z"/>
		<g>
			<g>
				<path class="st17" d="M419.82,772.45c0,0-49.61-8.46-66.96,25.8c-17.35,34.26-15.71,111.75,7.9,131.81
					c23.62,20.06,19.69,71.46,40.37,86.63c20.69,15.17,73.41,22.03,73.41-13.7c0,0-25.69,4.35-32.2-17.9c0,0,36.87,17.28,54.89-9.09
					c18.01-26.38-20.69-28.82-20.69-28.82s15.21,7.47-7.48,3.55c-22.69-3.91-7.88-9.58-7.88-28.76s14.03-5.62,10.02-40.87
					C467.21,845.88,436.73,771.24,419.82,772.45z"/>
				<path class="st18" d="M300.06,1528.83l-4.81,33.59c0,0-8.96,25.38-8.96,29.11c0,2.47,4.21,22.49,15.42,25.87
					c5.75,1.74,29.28-23.95,32.41-35.57c3.66-13.58-5.29-55.98-5.29-55.98L300.06,1528.83z"/>
				<path class="st18" d="M377.35,1522.86c0,0-6.39,49.26-6.39,56.72c0,7.47-1.01,18.18,3.19,22.39c4.21,4.21,42-8.21,42-21.65
					c0-13.43-8.21-57.47-8.21-57.47H377.35z"/>
				<path class="st19" d="M459,1082.41c0-33.63-1.39-143.04-1.39-143.04s-19.89-13.48-59.7-13.48c-12.8,0-24.57-2.19-37.32,0.13
					c-26.89,4.89-51.33,16.39-51.33,16.39s8.25,103.22-4.65,173.69c-2.28,12.45,7.45,23.87,20.11,23.87H450.5
					c8.48,0,14.93-7.63,13.54-16C461.09,1106.12,459,1091.14,459,1082.41z"/>
				<path class="st20" d="M317.32,1137.79c-20.4,15.8-24.76,21.24-30.57,28.36c-45.3,55.6-32.26,131.11-11.67,128.28
					c20.59-2.83,63.15-10.21,96.1-3.34c32.95,6.87,107.09,4.81,113.96-21.96c4.57-17.83-19.8-79.89-32.99-129.15L317.32,1137.79z"/>
				<path class="st21" d="M386.37,1207.35l-15.41,24.2c-7.58,17.35-3.16,58.9-3.16,58.9l-67.74-3.43l-3.22-63.83L386.37,1207.35z"/>
				<path class="st22" d="M374.63,1230c0,0,38.44-4.12,52.86,10.29c14.41,14.42-13.05,210.75-9.61,221.73
					c3.43,10.98,19.91,9.61,10.3,19.22c-9.61,9.61-12.01,16.13-7.55,20.59c4.46,4.46,6.18,10.98,2.06,15.1
					c-4.12,4.12-5.49,15.1-5.49,15.1h-46.01c0,0-3.42-28.15-3.42-32.95c0-4.8-5.49-18.53-5.49-18.53s17.14-8.94,8.91-17.17
					c-8.23-8.23,0-20.59,0-38.44C371.18,1407.11,345.8,1233.43,374.63,1230z"/>
				<path class="st22" d="M258.14,1229.45c13.3-13.3,34.8-14.96,56.08,0c21.28,14.96,13.73,52.03,13.73,85.67
					c0,33.64-2.2,116.7,1.3,127c3.51,10.3,14.49,20.59,10.37,31.58c-4.12,10.98-6.19,8.69,0.91,15.79c7.1,7.1,3.21,12.36,3.21,19.91
					c0,7.55-3.43,30.89-3.43,30.89h-43.94c0,0-2.06-41.87-13.04-58.35c-10.98-16.48-2.75-52.17-2.75-57.66
					c0-5.5-13.73-12.36-13.73-36.39C266.85,1363.86,250.91,1236.68,258.14,1229.45z"/>
				<path class="st23" d="M311.37,942.42c0,0-7.81,13.67-18.8,44.55c-10.98,30.89,7.49,153.31,7.49,173.91
					c0,20.59,25.83,46.47,25.83,46.47l21.97-24.71l-14.42-89.24L311.37,942.42z"/>
				<path class="st23" d="M457.61,939.37c0,0,31.66,7.81,41.33,51.74c9.66,43.93,17.51,146.9,14.49,159.26
					c-3.02,12.36-82.65,50.57-82.65,50.57l-6.73-13.5c0,0,60.39-52.17,60.39-59.72c0-7.55-25.84-102.05-25.84-102.05L457.61,939.37z
					"/>
				<polygon class="st24" points="213.99,1096.14 231.84,1222.8 454.26,1214.9 449.85,1087.91 				"/>
				<path class="st25" d="M332.9,1585.09c-20.73,13.13-36.15,11.75-46.59,6.74c0.28,3.48,4.57,22.29,15.41,25.56
					C306.97,1618.98,327.1,1597.64,332.9,1585.09z"/>
				<path class="st25" d="M416.16,1580.33c0-2.98-0.41-7.48-1.03-12.67c-11.96,10.75-27.94,17.84-43.39,2.05
					c-0.47,4.65-0.78,8.26-0.78,9.88c0,7.47-1.01,18.18,3.19,22.39C378.36,1606.18,416.16,1593.77,416.16,1580.33z"/>
				<path class="st18" d="M420.45,875c0,0-1.73,3.79-4.35,9.74c-9.08,20.6-3.3,52.18-2.84,57.68c0.91,11.03-4.98,33.6-4.98,33.6
					s-43.14-30.17-45.58-49.99l23.39-71.64L420.45,875z"/>
				<path class="st23" d="M386.1,854.38L420.45,875c0,0-1.73,3.8-4.35,9.74c-12.09-3.33-30.56-9.43-34.56-16.42L386.1,854.38z"/>
				<path class="st17" d="M394.41,795.95l51.88,28.63c0,0,10.77,0.25,10.77-11.75s-13.22-23.74-26.68-30.59
					c-13.46-6.85-30.34-9.81-30.34-9.81L394.41,795.95z"/>
				<path class="st18" d="M413.25,782.98c0,0,20.07,3.43,25.45,12.97c5.38,9.55,6.85,32.31,12.24,37.69
					c5.39,5.39,10.08,6.57,10.08,6.57s1.43,2.49-3.96,5.18c-5.38,2.69-1.31,5.63,2.04,5.63c3.35,0,0.53,6.37-2.04,7.1
					c0,0,3.3,0.98,2.69,4.16c-0.61,3.18-2.2,3.79-2.2,3.79s-0.17,4.16,1.55,8.07c1.72,3.91-2.44,15.54-28.71,10.4
					c0,0-39.04-9.18-41.37-20.19c-2.32-11.01-19.69-51.04-4.89-65.84C398.93,783.71,413.25,782.98,413.25,782.98z"/>
				<path class="st26" d="M395.14,771.82c0,0,4.89-6.37,29.37,0.61c24.47,6.97,31.55,34.66,31.55,34.66s-15.76-10.66-25.67-10.66
					c-9.91,0-32.34-3.76-35.98-7.4C390.77,785.39,395.14,771.82,395.14,771.82z"/>
				<path class="st26" d="M400.21,769.6c3.42,0,23.2,24.64,17.33,43c-5.87,18.35-19.82,10.16-28.64,15.05
					c-8.81,4.9,1.71,27.54,0.12,36.71c-1.59,9.18-26.31,61.67-26.31,61.67s-20.8-110.97-8.19-131.53
					C367.13,773.93,400.21,769.6,400.21,769.6z"/>
				<path class="st23" d="M424.36,846.18c0,2.74,4.6,4.96,10.27,4.96c5.67,0,10.27-2.22,10.27-4.96c0-2.74-4.6-4.96-10.27-4.96
					C428.96,841.22,424.36,843.44,424.36,846.18z"/>
				<path class="st26" d="M449.05,824.58c0,0-3.37,6.78-17.11,6.46L449.05,824.58z"/>
				<path class="st26" d="M444.9,821.27c0,0-5.1-3.05-9.05-3.05c-3.96,0-7.61,1.6-7.61,3.05c0,0,4.34-2.06,7.76-1.52
					c3.42,0.53,5.02,3.17,6.4,3.17C443.76,822.91,444.9,821.27,444.9,821.27z"/>
				<path class="st26" d="M387.89,846c0,0,19.03,44.1-19.19,93.37c-38.22,49.27-90.08,29.33-97.06,9.38
					c-6.98-19.95,17.44-26.77,17.44-26.77s-4.66,22.56,7.76,21.5c12.41-1.07,16.69-4,11.7-28.29
					c-4.98-24.29,13.04-14.55,22.97-30.46c9.92-15.9,0-28.05,0-46.84c0-18.79,23.01-43.41,23.01-43.41L387.89,846z"/>
				<path class="st18" d="M391.58,829.85c0,0-7.08-15.42-10.39-12.12c-3.3,3.3-4.95,26.06,6.7,28.27
					C399.55,848.2,391.58,829.85,391.58,829.85z"/>
				<path class="st23" d="M391.07,831.72c0,0-3.65-8.41-5.63-6.42c-1.98,1.98,0.15,15.22,2.82,15.22
					C390.92,840.52,391.72,835.96,391.07,831.72z"/>
				<path class="st26" d="M445.42,831.56c0,1.57-0.73,2.85-1.62,2.85c-0.89,0-1.62-1.28-1.62-2.85c0-1.58,0.73-2.86,1.62-2.86
					C444.69,828.7,445.42,829.98,445.42,831.56z"/>
			</g>
		</g>
	</g>
	<g>
		<polygon class="st27" points="1308.35,1148.08 1113.8,1232.55 1125.08,1294.99 		"/>
		<polygon class="st1" points="1224.22,1310.83 1156.34,1259.55 1308.35,1148.08 		"/>
		<polygon class="st1" points="1056.25,1192.03 1308.35,1148.08 1113.8,1232.55 		"/>
		<polygon class="st28" points="1125.08,1294.99 1156.34,1259.55 1166.19,1267 		"/>
	</g>
</g>
</svg>
