<?xml version="1.0" encoding="utf-8"?>
<!-- Generator: Adobe Illustrator 24.1.1, SVG Export Plug-In . SVG Version: 6.00 Build 0)  -->
<svg version="1.1" xmlns="http://www.w3.org/2000/svg" xmlns:xlink="http://www.w3.org/1999/xlink" x="0px" y="0px"
	 viewBox="0 0 391.11 442.67" style="enable-background:new 0 0 391.11 442.67;" xml:space="preserve">
<style type="text/css">
	.st0{display:none;}
	.st1{display:inline;fill:#FFFFFF;}
	.st2{fill:#FFFFFF;}
	.st3{fill:#B2DEF6;}
	.st4{fill:#E8F2FC;}
	.st5{fill:#FF9933;}
	.st6{fill:#B1DEF7;}
	.st7{fill:#ECF8FE;}
	.st8{fill:#1D54B5;}
	.st9{fill:#3070CE;}
	.st10{fill:#4286E8;}
	.st11{fill:#13448C;}
	.st12{fill:#F95858;}
	.st13{fill:#E54848;}
	.st14{fill:#FFB19E;}
	.st15{fill:#FF4751;}
	.st16{fill:#CC3241;}
	.st17{fill:#F48F7A;}
	.st18{fill:#09326D;}
	.st19{opacity:0.13;fill:#0E367C;}
	.st20{fill:#CBE0F4;}
	.st21{display:inline;fill:#1D54B5;}
	.st22{display:inline;}
	.st23{opacity:0.41;fill:#13448C;}
	.st24{opacity:0.32;fill:#0E367C;}
	.st25{fill-rule:evenodd;clip-rule:evenodd;fill:#FFB19E;}
	.st26{fill-rule:evenodd;clip-rule:evenodd;fill:#13448C;}
	.st27{fill-rule:evenodd;clip-rule:evenodd;fill:#F48F7A;}
	.st28{fill:#A31919;}
</style>
<g id="BACKGROUND" class="st0">
	<rect x="-83.3" y="-108.19" class="st1" width="500" height="500"/>
</g>
<g id="OBJECTS">
	<g>
		<g>
			<g>
				<g>
					<rect x="173.75" y="218.07" class="st2" width="8.97" height="73.37"/>
					<rect x="179.2" y="218.07" class="st3" width="3.52" height="73.36"/>
					<path class="st2" d="M204,285.43h-49.03c-1.66,0-3,1.34-3,3l0,0c0,1.66,1.34,3,3,3H204c1.66,0,3-1.35,3-3l0,0
						C207.01,286.77,205.66,285.43,204,285.43z"/>
					<path class="st3" d="M204,285.43h-49.03c-1.09,0-2.04,0.59-2.57,1.46h42.47c1.66,0,3,1.35,3,3c0,0.57-0.17,1.09-0.44,1.54H204
						c1.66,0,3-1.35,3-3C207.01,286.77,205.66,285.43,204,285.43z"/>
					<rect x="173.75" y="218.07" class="st4" width="8.97" height="6.53"/>
					<path class="st5" d="M229.19,115.79c-1.26-0.56-2.66-0.87-4.15-0.87h-50.5c-4.93,0-9.17,3.5-10.1,8.35L148.62,206
						c-0.25,1.33-0.24,2.66,0,3.89c0.01,0.03,0.01,0.06,0.02,0.08H134.6c-2.31,0-4.18,1.87-4.18,4.18c0,2.31,1.87,4.18,4.18,4.18
						h45.38v-0.13h29.25c4.93,0,9.17-3.51,10.1-8.35l15.82-82.73C236.07,122.26,233.41,117.65,229.19,115.79z"/>
					<path class="st6" d="M235.14,127.13l-15.81,82.73c-0.92,4.84-5.16,8.35-10.1,8.35h-29.25v0.13H134.6
						c-2.31,0-4.18-1.87-4.18-4.18c0-2.31,1.87-4.18,4.18-4.18h14.04c-0.01-0.03-0.02-0.05-0.02-0.09c0.12,0.01,0.26,0.01,0.39,0.01
						h50.49c6.78,0,12.63-4.82,13.9-11.48l15.8-82.62C233.41,117.65,236.06,122.25,235.14,127.13z"/>
					<path class="st7" d="M213.49,197.92l-0.1,0.5c-1.27,6.66-7.11,11.48-13.9,11.48H149c-0.12,0-0.26,0-0.39-0.01
						c0,0.03,0.01,0.06,0.02,0.09H134.6c-2.09,0-3.83,1.54-4.13,3.55v-11.31c0-0.02-0.01-0.06-0.01-0.09
						c-0.33-2.24,1.55-4.21,3.82-4.21H213.49z"/>
					<path class="st7" d="M229.19,115.79l-15.8,82.62c-1.27,6.66-7.12,11.49-13.89,11.49H149c-0.13,0-0.26,0-0.39-0.01
						c-0.24-1.24-0.25-2.56,0-3.89l15.83-82.73c0.93-4.85,5.17-8.35,10.1-8.35h50.5C226.53,114.92,227.93,115.23,229.19,115.79z"/>
				</g>
				<g>
					<path class="st8" d="M109.52,95.95H23.55c-2,0-3.53,1.77-3.25,3.75l7.36,50.54c0.23,1.61,1.62,2.81,3.25,2.81h85.97
						c2,0,3.53-1.77,3.25-3.75l-7.36-50.54C112.53,97.15,111.15,95.95,109.52,95.95z"/>
					<path class="st9" d="M97.49,95.95H23.55c-2,0-3.53,1.77-3.25,3.75l3.25,22.34c7.93,3.47,16.91,5.44,26.45,5.44
						C74.66,127.48,89.19,114.39,97.49,95.95z"/>
					<g>
						<path class="st10" d="M70.52,134.53H59.55h-5.3c-1.41,0-2.49,1.24-2.28,2.64l4.93,33.85c0,0.1,0.01,0.22,0.02,0.32l0.22,1.33
							c0.16,1.13,1.14,1.97,2.28,1.97h5.29h10.78L70.52,134.53z"/>
						<path class="st8" d="M94.29,172.28c-0.02-1.27-1.06-2.3-2.33-2.3H79.64c-1.81,0-3.35-1.34-3.6-3.14l-3.61-26.37h2.14
							c1.4,0,2.48-1.25,2.28-2.64l-0.22-1.34c-0.16-1.13-1.14-1.97-2.28-1.97l-4.27,0c-1.95,0-3.45,1.72-3.19,3.65l4.5,33.54
							c0.22,1.67,1.65,2.92,3.34,2.92l17.22,0C93.26,174.65,94.31,173.58,94.29,172.28L94.29,172.28z"/>
					</g>
					<g>
						<path class="st10" d="M85.44,145.76c0,0.85-0.69,1.54-1.54,1.54c-0.85,0-1.54-0.69-1.54-1.54c0-0.85,0.69-1.54,1.54-1.54
							C84.75,144.22,85.44,144.91,85.44,145.76z"/>
						<path class="st10" d="M93.35,145.76c0,0.85-0.69,1.54-1.54,1.54c-0.85,0-1.54-0.69-1.54-1.54c0-0.85,0.69-1.54,1.54-1.54
							C92.66,144.22,93.35,144.91,93.35,145.76z"/>
						<circle class="st10" cx="98.75" cy="145.76" r="1.54"/>
					</g>
					<path class="st10" d="M107.85,119.4l4.49,30.85c0.23,1.61,1.62,2.81,3.25,2.81h1.29c2,0,3.53-1.77,3.25-3.75l-7.36-50.54
						c-0.23-1.61-1.62-2.81-3.25-2.81h-1.29c-2,0-3.53,1.77-3.25,3.75L107.85,119.4"/>
					<g>
						<path class="st10" d="M75.33,101.47H45.31c-0.73,0-1.29,0.66-1.18,1.38l0.2,1.24c0.09,0.58,0.59,1,1.18,1h30.02
							c0.73,0,1.29-0.66,1.18-1.38l-0.2-1.24C76.41,101.89,75.91,101.47,75.33,101.47z"/>
					</g>
				</g>
				<g>
					<path class="st11" d="M197.2,116.87c-0.95-7.32-11.67-3.89-7.65-10.71c3.72-6.31-0.61-9.1-5.73-10.08
						c-6.53-1.25-2.82-3.82-6-9.91c-4.03-7.74-10.26-5.44-10.26-5.44s-7.8-4.24-15.75,2.47c-8.38,7.07-6.55,13.32-2.07,21.9
						c2.27,4.34-0.52,8.2-2.5,16.18c-2.38,9.57,9.44,28.83,34.72,15.82C191.75,132.07,197.71,120.76,197.2,116.87z"/>
					<path class="st12" d="M162.28,118.87c0,0-3.86,0.41-7.79,4.34c-2.64,2.64-15.57,28.37-15.57,28.37l-11.93-36.54l-8.73,0.67
						c0,0,9.84,58.76,17.49,58.87c7.24,0.1,30.22-37.94,30.22-37.94L162.28,118.87z"/>
					<path class="st12" d="M186.95,134.28l7.65,28.63l-45.22,3.7l0.21,8.17c0,0,52.14,0.23,61.96,0.13
						c6.54-0.07-5.77-51.86-13.63-57.78c-6.21-4.69-23.39-3.44-23.39-3.44l-12.24,5.19c0,0-14.2,14.06-5.72,27.29
						c6.68,10.42-1.83,30.67-1.83,30.67l28.91,1.72l25.82,0.24L186.95,134.28z"/>
					<path class="st13" d="M158.09,165.89l1.62-0.3c1.55-6.77,1.83-16.02-1.71-20.47c-7-8.81,0.21-21.6,4.25-26.23h-0.01
						c-0.65,0.65-13.96,14.35-5.7,27.27C160.51,152.34,159.54,160.37,158.09,165.89z"/>
					<path class="st14" d="M149.5,168.49c-4.78,0.18-9.9,1.89-12.29,4.7c-0.53,0.62-0.08,1.59,0.74,1.59h11.63L149.5,168.49z"/>
					<g>
						<path class="st14" d="M174.53,104.07v9.66l-8.65,9.91l-0.05-0.11l-2.36-5.04v-5.42c-4.32-0.61-8.13-3.88-9.15-8.56l-1.22-6.68
							c0,0,6.45-0.68,11.58-5.9c0,0,1.54,2.83,3.75,5.02c1.61,1.6,3.83,1.99,4.68,2.86C174.24,100.96,174.65,102.48,174.53,104.07z"
							/>
						<path class="st15" d="M172.16,95.7c0,0-0.33-4.07-1.86-7.54c-1.77-4-4.26-8.69-9.43-8.7c0,0,12.56-1.95,14.66,15.53
							L172.16,95.7z"/>
						<g>
							<path class="st15" d="M179.67,98.57c-0.36-3.36-3.18-5.82-6.29-5.48c-3.11,0.34-5.34,3.33-4.98,6.7
								c0.36,3.36,3.18,5.82,6.29,5.48S180.04,101.94,179.67,98.57z"/>
							<path class="st16" d="M175.76,104.68c-3,0.32-5.71-2.04-6.06-5.28c-0.32-3,1.5-5.69,4.15-6.33c-0.15,0-0.31,0.01-0.47,0.02
								c-3.11,0.34-5.34,3.33-4.98,6.7c0.36,3.36,3.18,5.82,6.29,5.48c0.96-0.1,1.83-0.46,2.57-1
								C176.8,104.48,176.29,104.62,175.76,104.68z"/>
							<path class="st16" d="M177.5,98.73c-0.18-1.63-1.54-2.82-3.05-2.66c-1.51,0.16-2.59,1.62-2.41,3.25
								c0.18,1.63,1.54,2.82,3.05,2.66C176.59,101.81,177.67,100.36,177.5,98.73z"/>
						</g>
						<path class="st17" d="M171.64,108.97c-0.36,0.47-2.41,3.05-4.05,4.43c-0.66,0.55-1.01,1.37-1.01,2.22l-0.76,7.91l-2.36-5.04
							v-5.4l0.06-0.06C163.52,113.03,168.97,112.2,171.64,108.97z"/>
						<g>
							<path class="st15" d="M167.96,108.55l-0.09-0.55c3.16-0.54,5.46-4.79,5.49-4.83l0.49,0.26
								C173.75,103.62,171.38,107.97,167.96,108.55z"/>
							<path class="st15" d="M168.55,108.24c-0.07-0.52-0.86-0.8-1.75-0.64c-0.89,0.17-1.55,0.72-1.48,1.24
								c0.07,0.52,0.86,0.8,1.75,0.64C167.96,109.31,168.62,108.76,168.55,108.24z"/>
						</g>
					</g>
					<path class="st14" d="M126.28,115.27c0,0,1.23-10.11,0.12-10.48c-1.11-0.37-2.22,3.95-2.22,3.95s-4.69-9.12-7.89-8.14
						c-3.21,0.99,2.69,15.02,2.69,15.02L126.28,115.27z"/>
					<path class="st13" d="M158.07,165.84l35.61-2.98c1.22-0.1,2.08-1.24,1.85-2.44c-1.32-6.66-5.12-25.74-5.35-25.18
						c-0.28,0.69,3.58,22.47-0.96,24.67C186.11,161.42,158.07,165.84,158.07,165.84z"/>
					<g>
						<g>
							<path class="st14" d="M182.29,271.18c-0.26,0.06-0.5,0.21-0.68,0.46c-2.27,3.15-4.28,3.9-8.25,4.43
								c-0.24,0.03-0.48,0.12-0.75,0.25c0.31-0.46,1.63-2.63,0.72-4.58c-1.03-2.2-2.27-3.8-2.27-3.8l5.81-3.46
								C176.87,264.48,180.44,268.59,182.29,271.18z"/>
							<path class="st11" d="M186.59,278.57c-1.03,0.98-17.6,10.04-21.54,12.32c-0.48,0.28-1.46,0.79-1.63,0.26
								c-0.28-0.82,6.89-14.65,9.94-15.07c3.97-0.54,5.99-1.28,8.25-4.44c0.47-0.66,1.46-0.66,1.91,0.02
								C185.11,274.07,187.42,277.78,186.59,278.57z"/>
						</g>
						<path class="st11" d="M154.95,176.79c0,0-40.22,18.64-41.29,31.58c-0.95,11.5,58.33,64.11,58.33,64.11l9.37-3.86l-32.44-52.29
							c0,0,34.37-16.94,42.77-37.34L154.95,176.79z"/>
						<path class="st18" d="M129.32,204.98c-2.73,5.25-4.73,12.58-6.13,19.23c4.55,5.41,10.3,11.49,16.23,17.48
							c-4.39-17.33-8.28-34.7-6.93-37.19c2.57-4.75,19.61-17.36,31.65-23.64C164.14,180.85,135.65,192.8,129.32,204.98z"/>
					</g>
					<g>
						<g>
							<path class="st14" d="M158.59,281.98c-0.26-0.07-0.54-0.06-0.82,0.07c-3.52,1.64-5.64,1.31-9.37-0.16
								c-0.22-0.09-0.48-0.14-0.77-0.15c0.49-0.25,2.71-1.5,2.86-3.65c0.18-2.42-0.12-4.43-0.12-4.43l6.76-0.18
								C157.14,273.49,158.24,278.81,158.59,281.98z"/>
							<path class="st11" d="M158.74,291.02c-1.38,0.36-20.94,0.14-25.49,0.2c-0.56,0.01-0.98-0.49-0.88-1.04
								c0.16-0.85,13.17-9.42,16.04-8.29c3.73,1.47,5.85,1.81,9.37,0.16c0.74-0.35,1.59,0.14,1.65,0.95
								C159.64,285.88,159.85,290.73,158.74,291.02z"/>
						</g>
						<g>
							<path class="st8" d="M209.31,178.71c0,0,3.37,22.78-17.05,28.54c-16.1,4.55-33.35,6.86-33.35,6.86l1.24,64.65H149.4
								c0,0-19.71-69.13-16.92-74.28c3.17-5.85,28.24-23.6,38.96-26.8L209.31,178.71z"/>
							<path class="st19" d="M158.91,214.12c0,0,17.26-2.32,33.35-6.86c20.42-5.77,17.05-28.54,17.05-28.54l-12.64-0.34
								c-3.8,8.17-16.15,28.39-46.1,30.57l6.78,69.83h2.79L158.91,214.12z"/>
						</g>
					</g>
				</g>
				<g>
					<g>
						<polygon class="st20" points="26.03,291.43 21.54,291.39 40.23,179.07 44.75,179.03 						"/>
						<polygon class="st20" points="211.17,291.39 215.94,291.43 192.77,177.79 188.03,177.82 						"/>
					</g>
					<g>
						<polygon class="st20" points="43.52,185.26 44.75,179.03 40.23,179.07 39,185.26 						"/>
						<polygon class="st20" points="194.29,185.26 192.77,177.79 188.03,177.82 189.54,185.26 						"/>
					</g>
					<path class="st20" d="M220.03,174.72H17.36c-1.26,0-2.28,1.02-2.28,2.28l0,0c0,1.26,1.02,2.28,2.28,2.28h202.68
						c1.26,0,2.28-1.02,2.28-2.28l0,0C222.32,175.74,221.3,174.72,220.03,174.72z"/>
				</g>
			</g>
			<g>
				<g>
					<path class="st8" d="M139.95,75.14l-5.34-30.93c-0.21-1.43-1.44-2.49-2.88-2.49l-49.69,0.54c-1.78,0-3.14,1.58-2.88,3.33
						l4.69,27.13l2.37,15.36c0.13,0.81,1.18,1.05,1.64,0.36l6.32-9.52l42.89-0.47C138.85,78.48,140.21,76.9,139.95,75.14z"/>
					<g>
						<g>
							<path class="st2" d="M122.28,51.32h-28.8c-0.5,0-0.87,0.44-0.79,0.93l0.14,0.84c0.06,0.39,0.4,0.68,0.79,0.68h28.8
								c0.5,0,0.87-0.44,0.79-0.93L123.08,52C123.02,51.61,122.68,51.32,122.28,51.32z"/>
						</g>
						<g>
							<path class="st2" d="M123.25,58.97h-28.8c-0.5,0-0.87,0.44-0.79,0.93l0.14,0.84c0.06,0.39,0.4,0.68,0.79,0.68h28.8
								c0.5,0,0.87-0.44,0.79-0.93l-0.14-0.84C123.98,59.25,123.65,58.97,123.25,58.97z"/>
						</g>
						<g>
							<path class="st2" d="M116.39,67.26l-13.33,0.02c-0.5,0-0.87,0.44-0.79,0.93l0.14,0.84c0.06,0.39,0.4,0.68,0.79,0.68
								l13.33-0.02c0.5,0,0.87-0.44,0.79-0.93l-0.14-0.84C117.12,67.55,116.79,67.26,116.39,67.26z"/>
						</g>
					</g>
				</g>
				<g class="st0">
					<path class="st21" d="M341.79,26.14l6.61-29.09c0.34-1.35-0.41-2.34-1.77-2.34l-46.94,0.51c-1.67,0-3.54,1.48-3.96,3.13
						l-5.8,25.52l-3.55,14.45c-0.19,0.76,0.72,0.98,1.41,0.34l9.53-8.95l40.52-0.44C339.5,29.27,341.37,27.79,341.79,26.14z"/>
					<g class="st22">
						<g>
							<path class="st2" d="M333.41,4.15h-25.77c-0.44,0-0.94,0.4-1.05,0.84l-0.18,0.75c-0.08,0.35,0.12,0.61,0.47,0.61h25.77
								c0.44,0,0.94-0.4,1.04-0.84l0.18-0.75C333.96,4.41,333.77,4.15,333.41,4.15z"/>
						</g>
						<g>
							<path class="st2" d="M331.54,10.99h-25.77c-0.44,0-0.94,0.4-1.05,0.84l-0.18,0.75c-0.08,0.35,0.12,0.61,0.47,0.61h25.77
								c0.44,0,0.94-0.4,1.05-0.84l0.18-0.75C332.09,11.25,331.89,10.99,331.54,10.99z"/>
						</g>
						<g>
							<path class="st2" d="M322.43,18.42l-11.93,0.02c-0.44,0-0.94,0.4-1.05,0.84l-0.18,0.75c-0.08,0.35,0.12,0.61,0.47,0.61
								l11.93-0.02c0.44,0,0.94-0.4,1.05-0.84l0.18-0.75C322.98,18.67,322.79,18.42,322.43,18.42z"/>
						</g>
					</g>
				</g>
				<g>
					<path class="st12" d="M74.39,74.92c0.64,0.54,1.61-0.02,1.46-0.85l-6.37-36.73c-0.18-1.21-1.22-2.12-2.45-2.12l-42.17,0.46
						c-1.51,0-2.66,1.34-2.45,2.83l4.53,26.24c0.18,1.21,1.22,2.12,2.45,2.12l32.47-0.36c1.55-0.02,3.05,0.52,4.24,1.51L74.39,74.92
						z"/>
					<g>
						<g>
							<path class="st2" d="M61.26,46.26h-28.8c-0.5,0-0.87,0.44-0.79,0.93l0.14,0.84c0.06,0.39,0.4,0.68,0.79,0.68h28.8
								c0.5,0,0.87-0.44,0.79-0.93l-0.14-0.84C61.99,46.54,61.66,46.26,61.26,46.26z"/>
						</g>
						<g>
							<path class="st2" d="M62.23,53.9h-28.8c-0.5,0-0.87,0.44-0.79,0.93l0.14,0.84c0.06,0.39,0.4,0.68,0.79,0.68h28.8
								c0.5,0,0.87-0.44,0.79-0.93l-0.14-0.84C62.96,54.19,62.62,53.9,62.23,53.9z"/>
						</g>
					</g>
				</g>
			</g>
			<g>
				<g>
					<g>
						<path class="st8" d="M316.87,260.72l-0.16,5.78l-3.47,134.24h-13.87l-12.29-115.03c0,0-0.01,0.01-0.01,0.03l-15.62,38.78
							l10.66,76.21l-5.13,0.04l-8.48,0.08c0,0-25.36-76.05-24.85-80.98c0.52-4.92,19.56-58.67,19.56-58.67L316.87,260.72z"/>
						<polygon class="st12" points="318.21,177.63 292.16,174.05 291.55,173.96 279.09,174.01 278.98,174.03 264.09,177.76 
							264.09,261.45 318.21,261.45 						"/>
						<path class="st14" d="M362.8,193.89c0,0,1.89-11.83,3.27-11.89c1.37-0.06,1.23,5.18,1.23,5.18s8.26-8.79,11.57-6.63
							c3.3,2.16-7.92,16.1-7.92,16.1L362.8,193.89z"/>
						<path class="st10" d="M279.11,174.08l1.41,92.42h-19.49l-1.38-25.3l-25.86-0.42c-2.69,0.09-4.68-2.47-3.93-5.05l12.88-44.78
							c1.5-5.24,5.67-9.27,10.95-10.59l25.28-6.32L279.11,174.08z"/>
						<path class="st10" d="M371.79,197.03l-25.07,51.5c-1.59,2.89-5.7,2.95-7.4,0.14l-19.62-32.51l-0.98,50.34h-20.82l-5.83-92.43
							l0.08-0.02l26.48,3.64c4.99,0.75,9.3,3.93,11.51,8.48l13.39,27.62c0.33,0.68,1.25,0.79,1.74,0.21l17.04-20.35L371.79,197.03z"
							/>
						<polygon class="st10" points="259.53,241.45 284.94,241.45 285.18,228.44 259.78,228.07 						"/>
						<path class="st14" d="M285.1,237.86c7.17-0.26,14.83-2.82,18.42-7.04c0.8-0.94,0.12-2.38-1.11-2.38h-17.42L285.1,237.86z"/>
						<polygon class="st23" points="275.19,241.98 275.21,241.56 259.67,241.45 261.03,266.5 265.67,245.74 						"/>
						<polygon class="st24" points="316.71,266.5 313.24,400.74 312.27,400.74 302.95,266.5 						"/>
						<path class="st23" d="M285.15,228.35c0,0-34.46,2.5-34.24,1.84l5.98-20.61l0.09,0.31l0.59,14.38
							C257.65,226.22,283.35,227.84,285.15,228.35z"/>
						<path class="st23" d="M346.72,248.52l25.07-51.5l-0.12-0.04c-2.66-0.01-25.98,48.76-28.44,49.98
							c-2.79,1.4-23.53-30.82-23.53-30.82l19.62,32.51C341.01,251.47,345.13,251.41,346.72,248.52z"/>
						<g>
							<path class="st11" d="M270.09,400.72c-2.99,6.13-17.21,9.22-17.21,9.22s-1.03,1.81,0.6,4.09c1.62,2.29,16.58,0.89,18.46,0.47
								c1.88-0.42,3.17-1.94,3.17-1.94s1.26,1.37,1.96,1.71c0.7,0.34,4.52-0.43,4.52-0.43c0.9-2.44,0-11.74-0.26-13.23
								L270.09,400.72z"/>
						</g>
						<g>
							<path class="st11" d="M311.94,400.72c2.99,6.13,17.21,9.22,17.21,9.22s1.03,1.81-0.6,4.09c-1.62,2.29-16.58,0.89-18.46,0.47
								c-1.88-0.42-3.17-1.94-3.17-1.94s-1.26,1.37-1.96,1.71c-0.7,0.34-4.52-0.43-4.52-0.43c-0.9-2.44,0-11.74,0.26-13.23
								L311.94,400.72z"/>
						</g>
						<path class="st24" d="M271.46,324.53l10.66,76.21l-5.13,0.04c-3.16-16.41-14.22-71.28-13.81-74.72
							c0.48-4.11,23.2-39.15,23.9-40.31L271.46,324.53z"/>
					</g>
					<g>
						<g>
							<path class="st25" d="M292.1,174.13c-1.89,1.51-6.45,4.72-6.45,4.72s-4.64-3.18-6.56-4.71l-0.02-11.03h13.03V174.13z"/>
							<path class="st25" d="M292.11,163.11v4.61c-3.77,3.13-9.25,3.14-13.03,0.05v-4.67H292.11z"/>
							<path class="st26" d="M271.12,155.98h29.29l0.45-8.15c6.47-2.74,1.62-18.18,1.62-18.18c0.37,3.74-9.71,3.86-13.7,3.24
								c-3.98-0.62-6.72,1-6.72,1s-12.7-2.74-11.95,15.06C270.22,151.64,270.58,153.91,271.12,155.98z"/>
							<g>
								<path class="st25" d="M297.31,147.81v7.35c0,3.14-1.29,6.15-3.58,8.3c-0.37,0.33-0.75,0.69-1.13,1.05
									c-3.95,3.72-10.12,3.72-14.07,0l-1.12-1.05c-2.29-2.14-3.59-5.14-3.59-8.28v-5.61c0,0,3.39-2.27,8.06-7.84
									C281.88,141.74,287.04,146.69,297.31,147.81z"/>
								<path class="st27" d="M292.11,164.94v2.79c-3.77,3.13-9.25,3.14-13.03,0.05v-2.8C282.86,168.08,288.33,168.07,292.11,164.94
									z"/>
								<path class="st25" d="M276.73,156.84c2.27-3.64-1.56-7.48-5.21-5.21c-0.28,0.18-0.53,0.42-0.71,0.71
									c-2.28,3.65,1.56,7.49,5.21,5.21C276.31,157.37,276.55,157.12,276.73,156.84z"/>
								<path class="st25" d="M300.13,156.84c2.22-3.56-1.38-7.3-4.95-5.36c-0.47,0.26-0.86,0.65-1.12,1.12
									c-1.94,3.56,1.8,7.17,5.36,4.95C299.7,157.37,299.95,157.13,300.13,156.84z"/>
							</g>
						</g>
						<g>
							<path class="st28" d="M300.02,149.08h-1.11v-3.86c0-6.4-5.84-11.61-13.02-11.61h-0.55c-7.18,0-13.02,5.21-13.02,11.61v3.86
								h-1.11v-3.86c0-6.99,6.34-12.67,14.13-12.67h0.55c7.79,0,14.13,5.68,14.13,12.67V149.08z"/>
							<g>
								<g>
									<g>
										<path class="st12" d="M299.09,147.03L299.09,147.03c-1.73,0-3.14,1.41-3.14,3.14v5.6c0,1.73,1.41,3.14,3.14,3.14l0,0
											c1.73,0,3.14-1.41,3.14-3.14v-5.6C302.23,148.44,300.82,147.03,299.09,147.03z"/>
										<path class="st16" d="M299.09,147.03c-0.33,0-0.64,0.07-0.94,0.16c1.27,0.4,2.2,1.58,2.2,2.98v5.6
											c0,1.4-0.93,2.57-2.2,2.98c0.3,0.1,0.61,0.16,0.94,0.16c1.73,0,3.14-1.41,3.14-3.14v-5.6
											C302.23,148.44,300.82,147.03,299.09,147.03z"/>
									</g>
									<g>
										<path class="st12" d="M272.13,147.03L272.13,147.03c-1.73,0-3.14,1.41-3.14,3.14v5.6c0,1.73,1.41,3.14,3.14,3.14l0,0
											c1.73,0,3.14-1.41,3.14-3.14v-5.6C275.27,148.44,273.85,147.03,272.13,147.03z"/>
										<path class="st16" d="M272.13,147.03c-0.33,0-0.64,0.07-0.94,0.16c1.27,0.4,2.2,1.58,2.2,2.98v5.6
											c0,1.4-0.93,2.57-2.2,2.98c0.3,0.1,0.61,0.16,0.94,0.16c1.73,0,3.14-1.41,3.14-3.14v-5.6
											C275.27,148.44,273.85,147.03,272.13,147.03z"/>
									</g>
								</g>
								<g>
									<path class="st15" d="M290.61,162.41l-0.04-0.62c3.58-0.23,6.66-4.68,6.69-4.73l0.52,0.35
										C297.64,157.61,294.49,162.17,290.61,162.41z"/>
									<path class="st15" d="M291.3,162.13c-0.02-0.59-0.86-1-1.87-0.92c-1.01,0.08-1.82,0.62-1.8,1.21
										c0.02,0.59,0.86,1,1.87,0.92C290.52,163.26,291.32,162.72,291.3,162.13z"/>
								</g>
							</g>
						</g>
					</g>
				</g>
				<g>
					<path class="st11" d="M306.17,190.25h-45.49c-2.48,0-4.41,2.14-4.31,4.74l1.19,29.28c0.1,2.36,2.08,4.27,4.42,4.27h42.88
						c2.33,0,4.32-1.91,4.42-4.27l1.19-29.28C310.58,192.39,308.65,190.25,306.17,190.25z"/>
					<path class="st8" d="M306.17,190.25h-45.49c-1.25,0-2.35,0.54-3.14,1.42c0.37-0.11,0.76-0.19,1.17-0.19h45.49
						c2.48,0,4.41,2.14,4.31,4.74l-1.19,29.28c-0.04,1.09-0.51,2.08-1.21,2.84c1.76-0.54,3.1-2.14,3.18-4.07l1.19-29.28
						C310.58,192.39,308.65,190.25,306.17,190.25z"/>
					<path class="st10" d="M288.25,210.15c0-2.85-2.31-5.15-5.15-5.15c-2.85,0-5.15,2.31-5.15,5.15c0,2.85,2.31,5.15,5.15,5.15
						C285.94,215.31,288.25,213,288.25,210.15z"/>
				</g>
			</g>
		</g>
	</g>
</g>
<g id="DESIGNED_BY_FREEPIK">
</g>
</svg>
